<?xml version="1.0" standalone="no"?>
<!DOCTYPE svg PUBLIC "-//W3C//DTD SVG 20010904//EN"
 "http://www.w3.org/TR/2001/REC-SVG-20010904/DTD/svg10.dtd">
<svg version="1.0" xmlns="http://www.w3.org/2000/svg"
 width="2000.000000pt" height="808.000000pt" viewBox="0 0 2000.000000 808.000000"
 preserveAspectRatio="xMidYMid meet">

<g transform="translate(0.000000,808.000000) scale(0.100000,-0.100000)"
fill="#000000" stroke="none">
<path d="M8710 4040 l0 -3630 545 0 545 0 2 1483 3 1482 654 0 654 0 499
-1175 c274 -646 557 -1313 629 -1482 l131 -308 610 0 c484 0 609 3 605 13 -2
6 -305 674 -672 1482 -367 809 -676 1489 -686 1512 l-18 41 81 27 c774 257
1168 943 1168 2035 0 491 -81 910 -240 1235 -241 494 -619 774 -1195 882
l-140 27 -1587 3 -1588 4 0 -3631z m3050 2642 c311 -82 476 -284 519 -637 14
-111 14 -969 1 -1075 -16 -126 -40 -211 -87 -310 -80 -168 -216 -273 -428
-332 -80 -23 -83 -23 -1022 -26 l-943 -3 0 1206 0 1206 938 -4 c934 -3 937 -3
1022 -25z"/>
<path d="M14870 4040 l0 -3630 1298 0 c1328 0 1409 2 1652 41 1092 173 1768
897 2034 2176 89 432 126 841 126 1413 0 572 -37 981 -126 1413 -137 658 -379
1163 -734 1531 -355 367 -783 570 -1400 663 -104 15 -249 17 -1482 20 l-1368
4 0 -3631z m2720 2646 c316 -62 544 -178 745 -380 262 -263 409 -625 455
-1121 6 -67 10 -521 10 -1150 0 -1081 -3 -1178 -45 -1396 -141 -746 -584
-1181 -1280 -1259 -52 -6 -391 -10 -797 -10 l-708 0 0 2671 0 2670 768 -4
c665 -3 778 -6 852 -21z"/>
</g>
</svg>
